<svg width="32" height="32" viewBox="0 0 32 32" fill="none" xmlns="http://www.w3.org/2000/svg">
<path d="M30.4235 2.84833L31.1306 3.55544L31.1306 3.55544L30.4235 2.84833ZM29.7163 2.14122L30.4235 2.84833L30.4235 2.84833L29.7163 2.14122ZM16.2822 15.5753L15.5751 16.2824L16.2822 16.9896L16.9893 16.2824L16.2822 15.5753ZM15.5751 16.2824L16.2822 16.9896L16.9893 16.2824L16.2822 15.5753L15.5751 16.2824ZM2.14106 29.7165L1.43396 29.0094L2.14106 29.7165ZM2.84817 30.4236L2.14106 29.7165L2.84817 30.4236ZM16.2822 16.9896L16.9893 16.2824L16.2822 15.5753L15.5751 16.2824L16.2822 16.9896ZM29.7163 30.4236L29.0092 31.1307L29.7163 30.4236ZM30.4234 29.7165L29.7163 30.4236L30.4234 29.7165ZM16.9893 16.2824L16.2822 15.5753L15.5751 16.2824L16.2822 16.9896L16.9893 16.2824ZM29.7163 2.84833C29.5211 2.65307 29.5211 2.33649 29.7163 2.14122L31.1306 3.55544C31.7163 2.96965 31.7163 2.0199 31.1306 1.43412L29.7163 2.84833ZM30.4235 2.84833C30.2282 3.04359 29.9116 3.04359 29.7163 2.84833L31.1306 1.43412C30.5448 0.848331 29.595 0.84833 29.0092 1.43412L30.4235 2.84833ZM16.9893 16.2824L30.4235 2.84833L29.0092 1.43412L15.5751 14.8682L16.9893 16.2824ZM2.141 2.84833L15.5751 16.2824L16.9893 14.8682L3.55522 1.43412L2.141 2.84833ZM2.84811 2.84833C2.65285 3.04359 2.33627 3.04359 2.141 2.84833L3.55522 1.43412C2.96943 0.84833 2.01968 0.848331 1.4339 1.43412L2.84811 2.84833ZM2.84811 2.14122C3.04337 2.33649 3.04337 2.65307 2.84811 2.84833L1.4339 1.43412C0.84811 2.0199 0.848109 2.96965 1.4339 3.55544L2.84811 2.14122ZM16.2822 15.5753L2.84811 2.14122L1.4339 3.55544L14.868 16.9896L16.2822 15.5753ZM2.84817 30.4236L16.2822 16.9896L14.868 15.5753L1.43396 29.0094L2.84817 30.4236ZM2.84817 29.7165C3.04343 29.9118 3.04343 30.2283 2.84817 30.4236L1.43396 29.0094C0.84817 29.5952 0.84817 30.5449 1.43396 31.1307L2.84817 29.7165ZM2.14106 29.7165C2.33632 29.5212 2.65291 29.5212 2.84817 29.7165L1.43396 31.1307C2.01974 31.7165 2.96949 31.7165 3.55528 31.1307L2.14106 29.7165ZM15.5751 16.2824L2.14106 29.7165L3.55528 31.1307L16.9893 17.6967L15.5751 16.2824ZM30.4234 29.7165L16.9893 16.2824L15.5751 17.6967L29.0092 31.1307L30.4234 29.7165ZM29.7163 29.7165C29.9115 29.5212 30.2281 29.5212 30.4234 29.7165L29.0092 31.1307C29.595 31.7165 30.5447 31.7165 31.1305 31.1307L29.7163 29.7165ZM29.7163 30.4236C29.521 30.2283 29.521 29.9118 29.7163 29.7165L31.1305 31.1307C31.7163 30.5449 31.7163 29.5952 31.1305 29.0094L29.7163 30.4236ZM16.2822 16.9896L29.7163 30.4236L31.1305 29.0094L17.6964 15.5753L16.2822 16.9896ZM29.7163 2.14122L16.2822 15.5753L17.6964 16.9896L31.1306 3.55544L29.7163 2.14122Z" fill="#F6F6F6"/>
</svg>
