<svg width="49" height="48" viewBox="0 0 49 48" fill="none" xmlns="http://www.w3.org/2000/svg">
<path fill-rule="evenodd" clip-rule="evenodd" d="M21.1611 20C21.1611 18.3431 22.5043 17 24.1611 17C25.818 17 27.1611 18.3431 27.1611 20V22H21.1611V20ZM19.1611 22V20C19.1611 17.2386 21.3997 15 24.1611 15C26.9226 15 29.1611 17.2386 29.1611 20V22C30.2657 22 31.1611 22.8954 31.1611 24V31C31.1611 32.1046 30.2657 33 29.1611 33H19.1611C18.0566 33 17.1611 32.1046 17.1611 31V24C17.1611 22.8954 18.0566 22 19.1611 22ZM19.1611 31L19.1611 24H29.1611V31H19.1611Z" fill="#222222"/>
</svg>
