<svg width="16" height="16" viewBox="0 0 16 16" fill="none" xmlns="http://www.w3.org/2000/svg">
<path d="M15.3337 3.66667V13.3333C15.3337 14.8 14.1337 16 12.667 16H7.80033C7.08033 16 6.40033 15.7133 5.90033 15.2067L0.666992 9.88667C0.666992 9.88667 1.50699 9.06667 1.53366 9.05333C1.68033 8.92667 1.86033 8.86 2.06033 8.86C2.20699 8.86 2.34033 8.9 2.46033 8.96667C2.48699 8.97333 5.33366 10.6067 5.33366 10.6067V2.66667C5.33366 2.11333 5.78033 1.66667 6.33366 1.66667C6.88699 1.66667 7.33366 2.11333 7.33366 2.66667V7.33333H8.00033V1C8.00033 0.446667 8.44699 0 9.00033 0C9.55366 0 10.0003 0.446667 10.0003 1V7.33333H10.667V1.66667C10.667 1.11333 11.1137 0.666667 11.667 0.666667C12.2203 0.666667 12.667 1.11333 12.667 1.66667V7.33333H13.3337V3.66667C13.3337 3.11333 13.7803 2.66667 14.3337 2.66667C14.887 2.66667 15.3337 3.11333 15.3337 3.66667Z" fill="#F6F6F6"/>
</svg>
