<svg width="49" height="48" viewBox="0 0 49 48" fill="none" xmlns="http://www.w3.org/2000/svg">
<path fill-rule="evenodd" clip-rule="evenodd" d="M21.1924 20C21.1924 18.3431 22.5355 17 24.1924 17C25.4498 17 26.5289 17.7739 26.9747 18.8752C27.1819 19.3871 27.7649 19.6342 28.2768 19.4269C28.7888 19.2197 29.0358 18.6367 28.8286 18.1248C28.0876 16.2942 26.2923 15 24.1924 15C21.431 15 19.1924 17.2386 19.1924 20V22C18.0878 22 17.1924 22.8954 17.1924 24V31C17.1924 32.1046 18.0878 33 19.1924 33H29.1924C30.297 33 31.1924 32.1046 31.1924 31V24C31.1924 22.8954 30.297 22 29.1924 22H21.1924V20ZM20.1924 24H19.1924L19.1924 31H29.1924V24H20.1924Z" fill="#222222"/>
</svg>
