<svg width="18" height="12" viewBox="0 0 18 12" fill="none" xmlns="http://www.w3.org/2000/svg">
<path fill-rule="evenodd" clip-rule="evenodd" d="M4.79538 8.25603C3.73287 7.46285 2.85598 6.58003 2.3244 6C2.85598 5.41997 3.73287 4.53715 4.79538 3.74397C6.13192 2.74623 7.61738 2 9.00006 2C10.3827 2 11.8682 2.74623 13.2047 3.74397C14.2672 4.53715 15.1441 5.41997 15.6757 6C15.1441 6.58003 14.2672 7.46285 13.2047 8.25603C11.8682 9.25377 10.3827 10 9.00006 10C7.61738 10 6.13192 9.25377 4.79538 8.25603ZM9.00006 0C6.96414 0 5.04597 1.06108 3.59896 2.1413C2.12631 3.24065 0.991198 4.47419 0.498855 5.04227C0.0205637 5.59414 0.0205637 6.40586 0.498855 6.95773C0.991198 7.52581 2.12631 8.75935 3.59896 9.8587C5.04597 10.9389 6.96414 12 9.00006 12C11.036 12 12.9541 10.9389 14.4012 9.8587C15.8738 8.75935 17.0089 7.52581 17.5013 6.95773C17.9795 6.40586 17.9795 5.59414 17.5013 5.04227C17.0089 4.47419 15.8738 3.24065 14.4012 2.1413C12.9541 1.06108 11.036 0 9.00006 0ZM9.00006 8C10.1046 8 11.0001 7.10457 11.0001 6C11.0001 4.89543 10.1046 4 9.00006 4C7.89549 4 7.00006 4.89543 7.00006 6C7.00006 7.10457 7.89549 8 9.00006 8Z" fill="#F6F6F6"/>
</svg>
