<svg width="19" height="19" viewBox="0 0 19 19" fill="none" xmlns="http://www.w3.org/2000/svg">
<path fill-rule="evenodd" clip-rule="evenodd" d="M16.5462 3.41361C16.5464 3.41361 16.5452 3.41607 16.542 3.42098C16.5444 3.41606 16.546 3.41361 16.5462 3.41361ZM16.3698 3.6C16.1455 3.40701 15.748 3.15857 15.13 2.91137C13.7913 2.3759 11.8048 2 9.50879 2C7.21281 2 5.22629 2.3759 3.88761 2.91137C3.2696 3.15857 2.87208 3.40701 2.64782 3.6C2.87208 3.79299 3.2696 4.04143 3.88761 4.28863C5.22629 4.8241 7.21281 5.2 9.50879 5.2C11.8048 5.2 13.7913 4.8241 15.13 4.28863C15.748 4.04143 16.1455 3.79299 16.3698 3.6ZM2.47139 3.41361C2.47158 3.41361 2.47318 3.41606 2.47561 3.42097C2.47242 3.41607 2.47121 3.41361 2.47139 3.41361ZM2.47139 3.78639C2.47121 3.78639 2.47242 3.78393 2.47561 3.77903C2.47318 3.78394 2.47158 3.78639 2.47139 3.78639ZM16.542 3.77902C16.5452 3.78393 16.5464 3.78639 16.5462 3.78639C16.546 3.78639 16.5444 3.78394 16.542 3.77902ZM9.50879 7.2C12.3361 7.2 14.8588 6.67853 16.5088 5.86293V7C16.5088 7.02553 16.4986 7.16958 16.2167 7.41948C15.936 7.66834 15.4728 7.93815 14.8145 8.18499C13.5054 8.67591 11.6298 9 9.50879 9C7.38782 9 5.51218 8.67591 4.20306 8.18499C3.54481 7.93815 3.08157 7.66834 2.80088 7.41948C2.51901 7.16958 2.50879 7.02553 2.50879 7V5.86293C4.15874 6.67853 6.68152 7.2 9.50879 7.2ZM15.5168 10.0576C15.8662 9.92662 16.1997 9.77981 16.5088 9.61619V10.6246C16.5088 10.7187 16.4662 10.9043 16.1861 11.1744C15.9031 11.4473 15.441 11.7391 14.7881 12.0053C13.4872 12.5357 11.6212 12.8867 9.50879 12.8867C7.39634 12.8867 5.53033 12.5357 4.22952 12.0053C3.57661 11.7391 3.11453 11.4473 2.83152 11.1744C2.55135 10.9043 2.50879 10.7187 2.50879 10.6246V9.61619C2.81789 9.77981 3.15141 9.92662 3.50081 10.0576C5.08712 10.6525 7.21148 11 9.50879 11C11.8061 11 13.9305 10.6525 15.5168 10.0576ZM0.508789 7V8V10.6246C0.508789 10.7532 0.519081 10.8784 0.538529 11H0.508789V14.6246C0.508789 15.4313 0.913939 16.1038 1.44341 16.6143C1.97005 17.122 2.67954 17.5332 3.47435 17.8573C5.06897 18.5075 7.20296 18.8867 9.50879 18.8867C11.8146 18.8867 13.9486 18.5075 15.5432 17.8573C16.338 17.5332 17.0475 17.122 17.5742 16.6143C18.1036 16.1038 18.5088 15.4313 18.5088 14.6246V11H18.479C18.4985 10.8784 18.5088 10.7532 18.5088 10.6246V8V7V4H18.4539C18.4902 3.86867 18.5088 3.7352 18.5088 3.6C18.5088 1.61177 14.4794 0 9.50879 0C4.53823 0 0.508789 1.61177 0.508789 3.6C0.508789 3.7352 0.527422 3.86867 0.563718 4H0.508789V7ZM16.5088 13.3928C16.2076 13.564 15.8832 13.7186 15.5432 13.8572C13.9486 14.5075 11.8146 14.8867 9.50879 14.8867C7.20296 14.8867 5.06897 14.5075 3.47435 13.8572C3.13434 13.7186 2.80994 13.564 2.50879 13.3928V14.6246C2.50879 14.7187 2.55135 14.9043 2.83152 15.1744C3.11453 15.4473 3.57661 15.7391 4.22952 16.0053C5.53033 16.5357 7.39634 16.8867 9.50879 16.8867C11.6212 16.8867 13.4872 16.5357 14.7881 16.0053C15.441 15.7391 15.9031 15.4473 16.1861 15.1744C16.4662 14.9043 16.5088 14.7187 16.5088 14.6246V13.3928Z" fill="#813BF3"/>
</svg>
