<svg width="48" height="48" viewBox="0 0 48 48" fill="none" xmlns="http://www.w3.org/2000/svg">
<path fill-rule="evenodd" clip-rule="evenodd" d="M24.8992 22.5359L28.223 19.2121L28.9301 19.9192L25.6063 23.243L24.6305 23.5117L24.8992 22.5359ZM29.6372 17.7979L30.3443 18.505L31.237 17.6123L31.2373 17.607L31.2373 17.6068C31.2376 17.5992 31.2384 17.578 31.2204 17.5332C31.2017 17.4864 31.1421 17.364 30.9601 17.1821C30.7781 17.0001 30.6557 16.9405 30.6089 16.9217C30.5642 16.9038 30.543 16.9046 30.5354 16.9049L30.5352 16.9049L30.5299 16.9052L29.6372 17.7979ZM29.285 15.3217C29.3175 15.2892 29.3514 15.2593 29.3901 15.2346C29.6716 15.0549 30.9675 14.361 32.3743 15.7678C33.7812 17.1747 33.0873 18.4706 32.9076 18.752C32.8829 18.7908 32.853 18.8247 32.8205 18.8572L26.8336 24.8441C26.7112 24.9666 26.559 25.0551 26.392 25.1011L23.4646 25.9072C22.7165 26.1132 22.029 25.4257 22.235 24.6776L23.0411 21.7502C23.0871 21.5832 23.1756 21.431 23.2981 21.3086L29.285 15.3217ZM16 17.0001C15.4477 17.0001 15 17.4478 15 18.0001V32.0001C15 32.5524 15.4477 33.0001 16 33.0001H31C31.5523 33.0001 32 32.5524 32 32.0001V26.0001C32 25.4478 31.5523 25.0001 31 25.0001C30.4477 25.0001 30 25.4478 30 26.0001V31.0001H17V19.0001H22.5C23.0523 19.0001 23.5 18.5524 23.5 18.0001C23.5 17.4478 23.0523 17.0001 22.5 17.0001H16Z" fill="#737373"/>
</svg>
