<svg width="20" height="20" viewBox="0 0 20 20" fill="none" xmlns="http://www.w3.org/2000/svg">
<path d="M5.29396 11.1203L11.6291 4.78509L15.2149 8.37088L8.87975 14.706L3.93136 16.0686L5.29396 11.1203ZM16.6291 6.95666L13.0433 3.37088L13.8382 2.57598C13.9696 2.49558 14.3267 2.3076 14.7986 2.2823C15.2696 2.25705 15.9708 2.38501 16.7929 3.20711C17.615 4.02921 17.743 4.7304 17.7177 5.20141C17.6924 5.67328 17.5044 6.03035 17.424 6.16177L16.6291 6.95666ZM17.4441 6.1417L17.4439 6.14184C17.4445 6.14127 17.4446 6.14122 17.4441 6.1417ZM13.8583 2.55591C13.8588 2.55543 13.8587 2.5555 13.8582 2.55605L13.8583 2.55591Z" stroke="#813BF3" stroke-width="2"/>
</svg>
