<svg width="17" height="16" viewBox="0 0 17 16" fill="none" xmlns="http://www.w3.org/2000/svg">
<g clip-path="url(#clip0_154_13814)">
<path d="M16.2399 3.66667V13.3333C16.2399 14.8 15.0399 16 13.5732 16H8.70658C7.98658 16 7.30658 15.7133 6.80658 15.2067L1.57324 9.88667C1.57324 9.88667 2.41324 9.06667 2.43991 9.05333C2.58658 8.92667 2.76658 8.86 2.96658 8.86C3.11324 8.86 3.24658 8.9 3.36658 8.96667C3.39324 8.97333 6.23991 10.6067 6.23991 10.6067V2.66667C6.23991 2.11333 6.68658 1.66667 7.23991 1.66667C7.79324 1.66667 8.23991 2.11333 8.23991 2.66667V7.33333H8.90658V1C8.90658 0.446667 9.35324 0 9.90658 0C10.4599 0 10.9066 0.446667 10.9066 1V7.33333H11.5732V1.66667C11.5732 1.11333 12.0199 0.666667 12.5732 0.666667C13.1266 0.666667 13.5732 1.11333 13.5732 1.66667V7.33333H14.2399V3.66667C14.2399 3.11333 14.6866 2.66667 15.2399 2.66667C15.7932 2.66667 16.2399 3.11333 16.2399 3.66667Z" fill="#737373"/>
</g>
<defs>
<clipPath id="clip0_154_13814">
<rect width="16" height="16" fill="white" transform="translate(0.90625)"/>
</clipPath>
</defs>
</svg>
