<svg width="18" height="12" viewBox="0 0 18 12" fill="none" xmlns="http://www.w3.org/2000/svg">
<path fill-rule="evenodd" clip-rule="evenodd" d="M4.70163 8.25603C3.63912 7.46285 2.76223 6.58003 2.23065 6C2.76223 5.41997 3.63912 4.53715 4.70163 3.74397C6.03817 2.74623 7.52363 2 8.90631 2C10.289 2 11.7744 2.74623 13.111 3.74397C14.1735 4.53715 15.0504 5.41997 15.582 6C15.0504 6.58003 14.1735 7.46285 13.111 8.25603C11.7744 9.25377 10.289 10 8.90631 10C7.52363 10 6.03817 9.25377 4.70163 8.25603ZM8.90631 0C6.87039 0 4.95222 1.06108 3.50521 2.1413C2.03256 3.24065 0.897448 4.47419 0.405105 5.04227C-0.0731862 5.59414 -0.0731862 6.40586 0.405105 6.95773C0.897448 7.52581 2.03256 8.75935 3.50521 9.8587C4.95222 10.9389 6.87039 12 8.90631 12C10.9422 12 12.8604 10.9389 14.3074 9.8587C15.7801 8.75935 16.9152 7.52581 17.4075 6.95773C17.8858 6.40586 17.8858 5.59414 17.4075 5.04227C16.9152 4.47419 15.7801 3.24065 14.3074 2.1413C12.8604 1.06108 10.9422 0 8.90631 0ZM8.90631 8C10.0109 8 10.9063 7.10457 10.9063 6C10.9063 4.89543 10.0109 4 8.90631 4C7.80174 4 6.90631 4.89543 6.90631 6C6.90631 7.10457 7.80174 8 8.90631 8Z" fill="#737373"/>
</svg>
