<svg width="48" height="48" viewBox="0 0 48 48" fill="none" xmlns="http://www.w3.org/2000/svg">
<path fill-rule="evenodd" clip-rule="evenodd" d="M19 15C19.5523 15 20 15.4477 20 16V19C20 19.5523 19.5523 20 19 20C18.4477 20 18 19.5523 18 19V16C18 15.4477 18.4477 15 19 15ZM27 18H21V19C21 20.1046 20.1046 21 19 21C17.8954 21 17 20.1046 17 19V18H16.5C15.6716 18 15 18.6716 15 19.5V20.5V22V31.5C15 32.3284 15.6716 33 16.5 33H31.5C32.3284 33 33 32.3284 33 31.5V22V20.5V19.5C33 18.6716 32.3284 18 31.5 18H31V19C31 20.1046 30.1046 21 29 21C27.8954 21 27 20.1046 27 19V18ZM17 23V31H31V23H17ZM30 16C30 15.4477 29.5523 15 29 15C28.4477 15 28 15.4477 28 16V19C28 19.5523 28.4477 20 29 20C29.5523 20 30 19.5523 30 19V16Z" fill="##282828"/>
</svg>
