<svg width="48" height="48" viewBox="0 0 48 48" fill="none" xmlns="http://www.w3.org/2000/svg">
<path fill-rule="evenodd" clip-rule="evenodd" d="M15 26.6391V28V32C15 32.5523 15.4477 33 16 33H32C32.5523 33 33 32.5523 33 32V16C33 15.4477 32.5523 15 32 15H16C15.4477 15 15 15.4477 15 16V26.6391ZM17 27.5148L21.4878 23.3722L29.4624 31H17V28V27.5148ZM22.8703 21.9269L31 29.7031V17H17V24.7929L20.1313 21.9025C20.9074 21.1861 22.1069 21.1967 22.8703 21.9269ZM27 23C28.1046 23 29 22.1046 29 21C29 19.8954 28.1046 19 27 19C25.8954 19 25 19.8954 25 21C25 22.1046 25.8954 23 27 23Z" fill="#282828"/>
</svg>
