<svg width="48" height="48" viewBox="0 0 48 48" fill="none" xmlns="http://www.w3.org/2000/svg">
<path d="M22 20H27.5M22 28H27.5M22 24H26.5M30 16H19C18.4477 16 18 16.4477 18 17V31C18 31.5523 18.4477 32 19 32H30C30.5523 32 31 31.5523 31 31V17C31 16.4477 30.5523 16 30 16Z" stroke="#813BF3" stroke-width="2" stroke-linecap="round" stroke-linejoin="round"/>
<path fill-rule="evenodd" clip-rule="evenodd" d="M48 32H46V46L32 46V48H46H48V46V32Z" fill="#813BF3"/>
<path fill-rule="evenodd" clip-rule="evenodd" d="M-1.90735e-06 16L2 16L2 2L16 2L16 0L2 -2.70245e-07L-5.08584e-07 -4.4509e-07L-6.8343e-07 2L-1.90735e-06 16Z" fill="#813BF3"/>
</svg>
